<?xml version="1.0" encoding="utf-8"?>
<!-- Generator: Adobe Illustrator 19.0.0, SVG Export Plug-In . SVG Version: 6.00 Build 0)  -->
<svg version="1.1" id="Layer_1" xmlns="http://www.w3.org/2000/svg" xmlns:xlink="http://www.w3.org/1999/xlink" x="0px" y="0px"
	 viewBox="0 0 960 560" style="enable-background:new 0 0 960 560;" xml:space="preserve">
<style type="text/css">
	.st0{fill:none;}
	.st1{fill:#D1E8B2;}
	.st2{fill:url(#XMLID_33_);}
	.st3{fill:url(#XMLID_36_);}
	.st4{fill:#9CD3C1;}
	.st5{fill:none;stroke:#B3B3B3;stroke-miterlimit:10;}
	.st6{fill:#008182;}
	.st7{fill:none;stroke:#07172E;stroke-miterlimit:10;}
	.st8{fill:none;stroke:#008182;stroke-miterlimit:10;}
	.st9{fill:none;stroke:#CCCCCC;stroke-miterlimit:10;}
	.st10{fill:#07172E;}
</style>
<pattern  width="27.4" height="27.4" patternUnits="userSpaceOnUse" id="New_Pattern_Swatch_2" viewBox="0 -27.4 27.4 27.4" style="overflow:visible;">
	<g id="XMLID_45_">
		<polygon id="XMLID_44_" class="st0" points="0,0 27.4,0 27.4,-27.4 0,-27.4 		"/>
		<path id="XMLID_53_" class="st1" d="M24.5,0c1.6,0,2.9-1.3,2.9-2.9c0-1.6-1.3-2.9-2.9-2.9c-1.6,0-2.9,1.3-2.9,2.9
			C21.6-1.3,22.9,0,24.5,0z"/>
		<path id="XMLID_52_" class="st1" d="M10.1,0C11.7,0,13-1.3,13-2.9c0-1.6-1.3-2.9-2.9-2.9c-1.6,0-2.9,1.3-2.9,2.9
			C7.2-1.3,8.5,0,10.1,0z"/>
		<path id="XMLID_51_" class="st1" d="M24.5-14.4c1.6,0,2.9-1.3,2.9-2.9c0-1.6-1.3-2.9-2.9-2.9c-1.6,0-2.9,1.3-2.9,2.9
			C21.6-15.7,22.9-14.4,24.5-14.4z"/>
		<path id="XMLID_50_" class="st1" d="M10.1-14.4c1.6,0,2.9-1.3,2.9-2.9c0-1.6-1.3-2.9-2.9-2.9c-1.6,0-2.9,1.3-2.9,2.9
			C7.2-15.7,8.5-14.4,10.1-14.4z"/>
		<path id="XMLID_49_" class="st1" d="M2.9-7.2c1.6,0,2.9-1.3,2.9-2.9c0-1.6-1.3-2.9-2.9-2.9C1.3-13,0-11.7,0-10.1
			C0-8.5,1.3-7.2,2.9-7.2z"/>
		<path id="XMLID_48_" class="st1" d="M17.3-7.2c1.6,0,2.9-1.3,2.9-2.9c0-1.6-1.3-2.9-2.9-2.9c-1.6,0-2.9,1.3-2.9,2.9
			C14.4-8.5,15.7-7.2,17.3-7.2z"/>
		<path id="XMLID_47_" class="st1" d="M2.9-21.6c1.6,0,2.9-1.3,2.9-2.9c0-1.6-1.3-2.9-2.9-2.9c-1.6,0-2.9,1.3-2.9,2.9
			C0-22.9,1.3-21.6,2.9-21.6z"/>
		<path id="XMLID_46_" class="st1" d="M17.3-21.6c1.6,0,2.9-1.3,2.9-2.9c0-1.6-1.3-2.9-2.9-2.9c-1.6,0-2.9,1.3-2.9,2.9
			C14.4-22.9,15.7-21.6,17.3-21.6z"/>
	</g>
</pattern>
<pattern  id="XMLID_33_" xlink:href="#New_Pattern_Swatch_2" patternTransform="matrix(1 0 0 1 -15.2695 -17.2817)">
</pattern>
<circle id="XMLID_11_" class="st2" cx="395.2" cy="294.3" r="77.1"/>
<pattern  id="XMLID_36_" xlink:href="#New_Pattern_Swatch_2" patternTransform="matrix(0.5156 0 0 0.5156 -3735.2961 -3564.1343)">
</pattern>
<circle id="XMLID_29_" class="st3" cx="877.5" cy="443.6" r="39.8"/>
<circle id="XMLID_16_" class="st4" cx="535.2" cy="420.3" r="44.1"/>
<circle id="XMLID_25_" class="st4" cx="861.2" cy="477.3" r="16.1"/>
<circle id="XMLID_26_" class="st4" cx="885.2" cy="422.3" r="6.1"/>
<g id="XMLID_12_">
	<g id="XMLID_79_">
		<line id="XMLID_81_" class="st5" x1="313.5" y1="97" x2="313.5" y2="123"/>
		<line id="XMLID_80_" class="st5" x1="327" y1="110.5" x2="301" y2="110.5"/>
	</g>
</g>
<g id="XMLID_2_">
	<polygon id="XMLID_32_" class="st6" points="570,109 559,109 559,98 558,98 558,109 547,109 547,110 558,110 558,121 559,121 
		559,110 570,110 	"/>
</g>
<g id="XMLID_13_">
	<polygon id="XMLID_17_" class="st6" points="917.9,525.7 911.1,524.1 912.7,517.3 911.7,517.1 910.1,523.9 903.3,522.3 
		903.1,523.3 909.9,524.9 908.3,531.7 909.3,531.9 910.9,525.1 917.7,526.7 	"/>
</g>
<g id="XMLID_19_">
	<g id="XMLID_75_">
		<line id="XMLID_77_" class="st7" x1="811.3" y1="102.3" x2="821.8" y2="126.1"/>
		<line id="XMLID_76_" class="st7" x1="829.1" y1="109.2" x2="805.3" y2="119.7"/>
	</g>
</g>
<g id="XMLID_22_">
	<g id="XMLID_65_">
		<line id="XMLID_70_" class="st7" x1="739.3" y1="308.3" x2="744.5" y2="320.1"/>
		<line id="XMLID_66_" class="st7" x1="748.1" y1="311.7" x2="736.3" y2="316.9"/>
	</g>
</g>
<g id="XMLID_23_">
	<g id="XMLID_89_">
		<line id="XMLID_91_" class="st7" x1="42.3" y1="26.3" x2="47.5" y2="38.1"/>
		<line id="XMLID_90_" class="st7" x1="51.1" y1="29.7" x2="39.3" y2="34.9"/>
	</g>
</g>
<g id="XMLID_3_">
	<line id="XMLID_8_" class="st8" x1="452.2" y1="412.2" x2="446.6" y2="447.5"/>
	<line id="XMLID_7_" class="st8" x1="466.9" y1="433.3" x2="431.6" y2="427.7"/>
</g>
<g id="XMLID_14_">
	<g id="XMLID_72_">
		<line id="XMLID_74_" class="st8" x1="159.5" y1="319" x2="159.5" y2="342"/>
		<line id="XMLID_73_" class="st8" x1="172" y1="331.5" x2="149" y2="331.5"/>
	</g>
</g>
<g id="XMLID_24_">
	<g id="XMLID_88_">
		<line id="XMLID_93_" class="st8" x1="48.5" y1="492" x2="48.5" y2="506"/>
		<line id="XMLID_92_" class="st8" x1="56" y1="499.5" x2="42" y2="499.5"/>
	</g>
</g>
<path id="XMLID_15_" class="st9" d="M357.7,302.3c-35.5-6.5-78.5,1.4-108-28c-22.1-21.5-29.8-66.8-65.5-64.9
	c-53.4,3.2-71.1,68.9-66.8,116.5c5.1,44.1,28.8,81.1,66.9,105.1c37.7,23.1,81.9,26.6,122,11.2c46.4-18.8,105.7-75.5,75.4-125.6
	C377.4,309.5,368.5,305.3,357.7,302.3z"/>
<circle id="XMLID_18_" class="st10" cx="338.7" cy="422.8" r="17.6"/>
<circle id="XMLID_1_" class="st4" cx="281.2" cy="243.3" r="86.1"/>
</svg>
